<svg xmlns="http://www.w3.org/2000/svg" version="1.1" xmlns:xlink="http://www.w3.org/1999/xlink" xmlns:svgjs="http://svgjs.dev/svgjs" width="1000" height="623" fill="#000" viewBox="0 0 1000 623"><g transform="matrix(1,0,0,1,-0.6060606060606233,0.2522267206477409)"><svg viewBox="0 0 396 247" data-background-color="#111111" preserveAspectRatio="xMidYMid meet" height="623" width="1000" xmlns="http://www.w3.org/2000/svg" xmlns:xlink="http://www.w3.org/1999/xlink"><g id="tight-bounds" transform="matrix(1,0,0,1,0.2400000000000091,-0.09999999999999432)"><svg viewBox="0 0 395.52 247.2" height="247.2" width="395.52"><g><svg></svg></g><g><svg viewBox="0 0 395.52 247.2" height="247.2" width="395.52"><g transform="matrix(1,0,0,1,75.54432,100.71010675585285)"><svg viewBox="0 0 244.43135999999998 45.779786488294306" height="45.779786488294306" width="244.43135999999998"><g><svg viewBox="0 0 244.43135999999998 45.779786488294306" height="45.779786488294306" width="244.43135999999998"><g><svg viewBox="0 0 244.43135999999998 45.779786488294306" height="45.779786488294306" width="244.43135999999998"><g><svg viewBox="0 0 244.43135999999998 45.779786488294306" height="45.779786488294306" width="244.43135999999998"><g id="textblocktransform"><svg viewBox="0 0 244.43135999999998 45.779786488294306" height="45.779786488294306" width="244.43135999999998" id="textblock"><g><svg viewBox="0 0 244.43135999999998 45.779786488294306" height="45.779786488294306" width="244.43135999999998"><g transform="matrix(1,0,0,1,0,0)"><svg width="244.43135999999998" viewBox="2.3 -36 254.13 47.6" height="45.779786488294306" data-palette-color="#ffffff"><path d="M18.75 0.6L18.75 0.6Q13.8 0.6 10.1-1.65 6.4-3.9 4.35-7.95 2.3-12 2.3-17.4L2.3-17.4Q2.3-22.75 4.4-26.85 6.5-30.95 10.38-33.27 14.25-35.6 19.55-35.6L19.55-35.6Q25.55-35.6 29.55-32.7 33.55-29.8 34.75-24.7L34.75-24.7 28.75-24.7Q27.95-27.5 25.6-29.1 23.25-30.7 19.55-30.7L19.55-30.7Q14.05-30.7 10.9-27.15 7.75-23.6 7.75-17.35L7.75-17.35Q7.75-11.1 10.85-7.6 13.95-4.1 19.1-4.1L19.1-4.1Q24.3-4.1 26.93-7.05 29.55-10 30-14.9L30-14.9 20.5-14.9 20.5-19 35.35-19 35.35 0 30.5 0 30.05-5.15Q28.3-2.4 25.65-0.9 23 0.6 18.75 0.6ZM61.45-12.3L41.1-12.3 41.1-16.75 61.45-16.75 61.45-12.3ZM79.2 0.6L79.2 0.6Q75.65 0.6 72.82-1.03 70-2.65 68.34-5.58 66.7-8.5 66.7-12.4L66.7-12.4Q66.7-16.3 68.37-19.23 70.05-22.15 72.9-23.78 75.75-25.4 79.25-25.4L79.25-25.4Q82.8-25.4 85.62-23.78 88.45-22.15 90.12-19.23 91.8-16.3 91.8-12.4L91.8-12.4Q91.8-8.5 90.12-5.58 88.45-2.65 85.59-1.03 82.75 0.6 79.2 0.6ZM79.2-3.95L79.2-3.95Q81.09-3.95 82.72-4.9 84.34-5.85 85.34-7.73 86.34-9.6 86.34-12.4L86.34-12.4Q86.34-15.2 85.37-17.07 84.4-18.95 82.77-19.9 81.15-20.85 79.25-20.85L79.25-20.85Q77.34-20.85 75.72-19.9 74.09-18.95 73.09-17.07 72.09-15.2 72.09-12.4L72.09-12.4Q72.09-9.6 73.09-7.73 74.09-5.85 75.7-4.9 77.3-3.95 79.2-3.95ZM106.39-7.6L106.39-7.6Q104.44-7.6 102.79-8.05L102.79-8.05 100.64-5.95Q101.19-5.6 101.99-5.35 102.79-5.1 104.24-4.9 105.69-4.7 108.19-4.5L108.19-4.5Q113.14-4.05 115.34-2.13 117.54-0.2 117.54 3L117.54 3Q117.54 5.2 116.37 7.18 115.19 9.15 112.72 10.38 110.24 11.6 106.39 11.6L106.39 11.6Q101.19 11.6 97.97 9.63 94.74 7.65 94.74 3.65L94.74 3.65Q94.74 2.1 95.57 0.58 96.39-0.95 98.19-2.3L98.19-2.3Q97.14-2.75 96.37-3.28 95.59-3.8 94.99-4.35L94.99-4.35 94.99-5.55 99.29-9.95Q96.39-12.45 96.39-16.5L96.39-16.5Q96.39-18.95 97.57-20.98 98.74-23 100.99-24.2 103.24-25.4 106.39-25.4L106.39-25.4Q108.49-25.4 110.29-24.8L110.29-24.8 119.54-24.8 119.54-21.3 115.14-21.05Q116.34-19 116.34-16.5L116.34-16.5Q116.34-14 115.17-12 113.99-10 111.77-8.8 109.54-7.6 106.39-7.6ZM106.39-11.75L106.39-11.75Q108.69-11.75 110.12-12.98 111.54-14.2 111.54-16.45L111.54-16.45Q111.54-18.75 110.12-19.95 108.69-21.15 106.39-21.15L106.39-21.15Q104.04-21.15 102.62-19.95 101.19-18.75 101.19-16.45L101.19-16.45Q101.19-14.2 102.62-12.98 104.04-11.75 106.39-11.75ZM99.74 3.15L99.74 3.15Q99.74 5.3 101.64 6.38 103.54 7.45 106.39 7.45L106.39 7.45Q109.14 7.45 110.84 6.28 112.54 5.1 112.54 3.15L112.54 3.15Q112.54 1.7 111.39 0.68 110.24-0.35 107.04-0.6L107.04-0.6Q104.64-0.75 102.79-1.05L102.79-1.05Q101.04-0.1 100.39 1 99.74 2.1 99.74 3.15ZM129.59 0L124.29 0 124.29-24.8 129.04-24.8 129.49-20.1Q130.79-22.55 133.12-23.98 135.44-25.4 138.74-25.4L138.74-25.4 138.74-19.85 137.29-19.85Q135.09-19.85 133.37-19.13 131.64-18.4 130.62-16.68 129.59-14.95 129.59-11.9L129.59-11.9 129.59 0ZM151.69 0.6L151.69 0.6Q148.54 0.6 146.49-0.45 144.44-1.5 143.44-3.23 142.44-4.95 142.44-7L142.44-7Q142.44-10.6 145.24-12.7 148.04-14.8 153.24-14.8L153.24-14.8 159.74-14.8 159.74-15.25Q159.74-18.15 158.16-19.6 156.59-21.05 154.09-21.05L154.09-21.05Q151.89-21.05 150.26-19.98 148.64-18.9 148.29-16.8L148.29-16.8 142.99-16.8Q143.24-19.5 144.81-21.43 146.39-23.35 148.81-24.38 151.24-25.4 154.14-25.4L154.14-25.4Q159.34-25.4 162.19-22.68 165.04-19.95 165.04-15.25L165.04-15.25 165.04 0 160.44 0 159.99-4.25Q158.94-2.2 156.94-0.8 154.94 0.6 151.69 0.6ZM152.74-3.7L152.74-3.7Q154.89-3.7 156.36-4.73 157.84-5.75 158.66-7.45 159.49-9.15 159.69-11.2L159.69-11.2 153.79-11.2Q150.64-11.2 149.31-10.1 147.99-9 147.99-7.35L147.99-7.35Q147.99-5.65 149.26-4.67 150.54-3.7 152.74-3.7ZM176.53 11L171.23 11 171.23-24.8 175.98-24.8 176.53-20.95Q177.73-22.7 179.83-24.05 181.94-25.4 185.23-25.4L185.23-25.4Q188.83-25.4 191.58-23.7 194.33-22 195.91-19.05 197.48-16.1 197.48-12.35L197.48-12.35Q197.48-8.6 195.91-5.68 194.33-2.75 191.58-1.07 188.83 0.6 185.19 0.6L185.19 0.6Q182.28 0.6 180.06-0.55 177.83-1.7 176.53-3.8L176.53-3.8 176.53 11ZM184.28-4L184.28-4Q187.69-4 189.88-6.33 192.08-8.65 192.08-12.4L192.08-12.4Q192.08-14.85 191.08-16.75 190.08-18.65 188.33-19.73 186.58-20.8 184.28-20.8L184.28-20.8Q180.88-20.8 178.71-18.45 176.53-16.1 176.53-12.4L176.53-12.4Q176.53-8.65 178.71-6.33 180.88-4 184.28-4ZM208.53 0L203.23 0 203.23-36 208.53-36 208.53-20.8Q209.78-22.95 212.01-24.18 214.23-25.4 216.93-25.4L216.93-25.4Q221.38-25.4 223.93-22.6 226.48-19.8 226.48-14.25L226.48-14.25 226.48 0 221.23 0 221.23-13.7Q221.23-20.9 215.48-20.9L215.48-20.9Q212.48-20.9 210.51-18.8 208.53-16.7 208.53-12.8L208.53-12.8 208.53 0ZM240.43 11L234.83 11 240.78-2.05 239.33-2.05 229.53-24.8 235.28-24.8 242.88-6.45 250.83-24.8 256.43-24.8 240.43 11Z" opacity="1" transform="matrix(1,0,0,1,0,0)" fill="#ffffff" class="wordmark-text-0" data-fill-palette-color="primary" id="text-0"></path></svg></g></svg></g></svg></g></svg></g></svg></g></svg></g></svg></g><path d="M187.987 94.71L187.987 33.423 7.632 33.423 7.632 213.777 187.987 213.777 187.987 152.49 183.859 152.49 183.859 209.649 11.761 209.649 11.761 37.551 183.859 37.551 183.859 94.71Z" fill="#ffffff" stroke="transparent" data-fill-palette-color="primary"></path></svg></g><defs></defs></svg><rect width="395.52" height="247.2" fill="none" stroke="none" visibility="hidden"></rect></g></svg></g></svg>